<?xml version="1.0" standalone="no"?>
<!DOCTYPE svg PUBLIC "-//W3C//DTD SVG 20010904//EN"
 "http://www.w3.org/TR/2001/REC-SVG-20010904/DTD/svg10.dtd">
<svg version="1.0" xmlns="http://www.w3.org/2000/svg"
 width="375.000000pt" height="375.000000pt" viewBox="0 0 375.000000 375.000000"
 preserveAspectRatio="xMidYMid meet">
<metadata>
Created by potrace 1.11, written by Peter Selinger 2001-2013
</metadata>
<g transform="translate(0.000000,375.000000) scale(0.100000,-0.100000)"
fill="#000000" stroke="none">
<path d="M3 3738 c2 -7 10 -14 18 -14 8 -1 20 -2 27 -3 6 0 12 -8 12 -16 0 -8
5 -15 10 -15 6 0 10 -9 10 -20 0 -23 -15 -27 -24 -5 -9 24 -56 -2 -56 -32 0
-20 2 -22 19 -11 17 10 23 8 41 -15 12 -15 27 -27 35 -27 16 0 30 33 16 38
-18 6 -13 20 11 33 18 10 24 8 39 -12 10 -13 19 -31 19 -41 0 -27 23 -27 53 1
29 28 32 38 18 60 -7 11 -13 9 -31 -9 -22 -22 -22 -22 -42 -2 -16 16 -18 24
-9 40 8 16 7 21 -4 26 -8 3 -22 3 -30 0 -18 -7 -75 14 -75 27 0 5 -14 9 -31 9
-20 0 -29 -4 -26 -12z"/>
<path d="M105 3740 c85 -16 255 -22 270 -10 13 10 19 9 35 -5 11 -10 23 -15
28 -11 4 4 -1 13 -11 20 -12 10 -65 13 -190 13 -107 1 -157 -2 -132 -7z"/>
<path d="M536 3741 c-3 -5 1 -11 9 -14 9 -4 12 -1 8 9 -6 16 -10 17 -17 5z"/>
<path d="M720 3739 c41 -5 85 -6 98 -4 14 4 22 1 22 -8 0 -16 37 -53 45 -45 3
3 -4 13 -15 23 -32 29 -24 36 38 31 31 -3 131 -8 221 -11 139 -5 167 -9 177
-23 12 -16 13 -16 14 0 0 14 8 16 55 11 30 -3 55 -2 55 3 0 5 -21 10 -48 12
-26 1 -103 7 -171 12 -159 13 -603 11 -491 -1z"/>
<path d="M1445 3720 c-4 -6 3 -10 14 -10 25 0 27 6 6 13 -8 4 -17 2 -20 -3z"/>
<path d="M2951 3706 l-23 -24 22 -12 c13 -7 20 -8 16 -2 -3 6 -2 13 4 17 5 3
15 15 20 26 16 28 -11 25 -39 -5z"/>
<path d="M1500 3711 c0 -11 86 -25 100 -16 24 15 6 25 -45 25 -30 0 -55 -4
-55 -9z"/>
<path d="M1625 3711 c-3 -6 -3 -11 2 -12 4 0 25 -1 46 -3 21 -2 40 1 43 6 3 4
-8 8 -25 8 -16 0 -36 3 -44 6 -8 3 -18 1 -22 -5z"/>
<path d="M355 3701 c-3 -6 -13 -7 -23 -4 -15 6 -15 5 -3 -11 19 -23 2 -39 -29
-28 -15 6 -19 11 -12 16 20 12 13 24 -13 24 -32 0 -31 -5 6 -61 37 -55 62 -60
84 -16 12 22 21 29 33 24 38 -15 101 -22 105 -12 2 6 11 5 26 -2 16 -9 26 -9
35 -1 9 6 34 8 70 4 51 -6 56 -5 56 13 0 18 -7 20 -60 20 -34 0 -63 -4 -66 -9
-3 -5 -12 -1 -20 9 -11 14 -13 15 -14 3 0 -12 -3 -11 -11 2 -5 10 -20 23 -32
29 l-22 12 20 -23 20 -23 -23 12 c-13 7 -26 10 -29 7 -4 -3 -13 0 -21 7 -12 9
-16 9 -19 0 -6 -17 -18 -16 -37 2 -8 9 -17 11 -21 6z"/>
<path d="M797 3653 c-14 -13 -6 -32 24 -65 l30 -33 20 24 c27 32 26 81 -2 81
-11 0 -17 -4 -14 -10 10 -16 -14 -40 -32 -33 -8 3 -13 13 -10 24 5 19 -4 25
-16 12z"/>
<path d="M1295 3648 c-15 -36 -2 -53 43 -54 24 -1 39 2 36 8 -3 5 -11 7 -17 5
-12 -4 -42 23 -50 44 -4 11 -6 10 -12 -3z"/>
<path d="M2520 3650 c0 -5 13 -10 29 -10 16 0 36 -3 45 -6 11 -4 16 -1 16 10
0 12 -10 16 -45 16 -25 0 -45 -4 -45 -10z"/>
<path d="M990 3625 c0 -12 11 -15 48 -14 26 1 58 -1 71 -6 24 -7 71 10 71 27
0 5 -8 5 -17 -1 -20 -10 -43 -9 -86 3 -18 5 -32 4 -42 -4 -10 -9 -15 -9 -15
-1 0 6 -7 11 -15 11 -8 0 -15 -7 -15 -15z"/>
<path d="M760 3614 c0 -12 -7 -15 -30 -12 -22 3 -27 2 -19 -8 16 -19 61 -27
70 -12 13 20 11 35 -6 42 -9 3 -15 0 -15 -10z"/>
<path d="M380 3613 c1 -13 38 -53 49 -53 6 0 11 14 11 30 0 27 -3 30 -30 30
-16 0 -30 -3 -30 -7z"/>
<path d="M1420 3610 c0 -20 99 -33 129 -16 23 13 22 13 -20 15 -24 0 -59 3
-76 6 -18 2 -33 0 -33 -5z"/>
<path d="M920 3570 c13 -18 26 -27 36 -23 22 8 13 23 -24 39 l-33 13 21 -29z"/>
<path d="M1826 3586 c3 -9 11 -16 16 -16 13 0 5 23 -10 28 -7 2 -10 -2 -6 -12z"/>
<path d="M500 3576 c0 -16 19 -25 38 -19 21 8 13 29 -13 31 -16 1 -25 -3 -25
-12z"/>
<path d="M625 3566 c3 -11 7 -27 7 -33 1 -7 8 -13 17 -13 11 0 17 10 18 33 1
28 -2 32 -24 33 -21 2 -24 -1 -18 -20z"/>
<path d="M1200 3580 c0 -6 7 -10 15 -10 8 0 15 2 15 4 0 2 -7 6 -15 10 -8 3
-15 1 -15 -4z"/>
<path d="M1910 3578 c14 -6 32 -10 42 -9 9 1 19 -3 23 -9 3 -5 16 -10 27 -10
19 0 19 1 -5 20 -17 13 -40 20 -69 19 -40 0 -41 -1 -18 -11z"/>
<path d="M2248 3505 c-3 -49 -4 -92 -2 -94 11 -12 15 15 12 95 l-3 89 -7 -90z"/>
<path d="M1240 3570 c0 -5 9 -10 20 -10 11 0 20 5 20 10 0 6 -9 10 -20 10 -11
0 -20 -4 -20 -10z"/>
<path d="M1042 3559 c5 -17 48 -25 48 -10 0 6 -4 11 -9 11 -5 0 -17 3 -27 7
-12 4 -15 2 -12 -8z"/>
<path d="M2722 3480 c-50 -50 -92 -93 -92 -95 0 -3 15 -5 34 -5 30 0 43 9 103
75 64 71 81 104 58 112 -6 2 -52 -38 -103 -87z"/>
<path d="M1467 3523 c6 -15 29 -18 37 -4 3 5 -5 11 -18 13 -17 4 -23 1 -19 -9z"/>
<path d="M2200 3525 c-7 -9 -8 -15 -2 -15 5 0 12 7 16 15 3 8 4 15 2 15 -2 0
-9 -7 -16 -15z"/>
<path d="M1770 3514 c0 -15 26 -19 34 -5 3 5 -3 11 -14 14 -13 3 -20 0 -20 -9z"/>
<path d="M1890 3511 c16 -31 49 -36 72 -13 l20 20 -26 -1 c-14 -1 -26 -5 -26
-9 0 -5 -8 -8 -17 -7 -11 0 -13 3 -5 6 15 6 6 23 -14 23 -11 0 -12 -4 -4 -19z"/>
<path d="M408 3471 c-2 -16 2 -37 9 -46 7 -10 10 -22 7 -26 -3 -5 -44 -8 -92
-7 -107 1 -125 -4 -150 -46 -15 -26 -26 -33 -51 -33 -38 0 -41 14 -4 19 16 2
29 10 31 20 2 12 -7 18 -39 23 -50 9 -59 -1 -59 -66 0 -25 -3 -80 -6 -122 -6
-61 -10 -77 -23 -78 -10 0 -7 -4 8 -10 16 -6 35 -6 58 2 19 6 36 9 38 7 3 -2
0 -20 -5 -39 -21 -80 -28 -134 -19 -140 11 -7 31 -118 23 -131 -3 -4 -9 -6
-14 -3 -4 3 -11 -12 -15 -32 -3 -20 -10 -32 -13 -26 -9 14 -51 11 -60 -3 -4
-6 -14 -14 -22 -17 -9 -3 -5 -6 10 -6 15 -1 32 5 39 12 11 10 13 9 9 -3 -3 -8
-19 -16 -36 -18 -25 -3 -32 -8 -32 -24 0 -14 5 -18 16 -14 9 3 24 6 34 6 11 0
28 18 44 44 19 33 33 45 54 48 23 3 27 8 30 41 3 34 6 37 25 32 21 -6 20 -5
-3 14 -14 11 -21 23 -17 27 4 4 19 -3 34 -17 15 -13 21 -16 14 -6 -9 12 -10
17 -2 17 18 0 -5 38 -28 45 -10 3 -21 15 -24 25 -3 11 -1 18 4 14 5 -3 9 0 9
5 0 6 -4 11 -9 11 -4 0 -4 20 2 44 8 34 13 42 28 39 11 -3 23 4 34 21 22 33
29 33 61 -4 15 -16 31 -27 35 -24 14 8 10 -12 -8 -52 -14 -28 -15 -38 -5 -41
17 -6 15 -23 -3 -23 -11 0 -12 -5 -5 -26 13 -33 13 -34 -6 -34 -11 0 -14 -6
-9 -22 6 -17 4 -20 -9 -15 -10 4 -15 3 -11 -3 3 -6 15 -10 25 -10 10 0 22 -5
26 -12 5 -8 0 -9 -14 -6 -12 4 -22 2 -22 -3 0 -5 5 -9 10 -9 18 0 11 -20 -7
-21 -11 0 -13 -3 -5 -6 17 -7 15 -30 -3 -37 -8 -3 -15 -16 -15 -30 0 -14 -5
-28 -11 -32 -9 -5 -10 -38 -4 -118 9 -113 9 -226 0 -234 -3 -3 -23 0 -46 7
-46 14 -50 12 -53 -23 -2 -36 -16 -33 -16 3 0 21 -6 32 -19 36 -11 3 -21 13
-23 23 -3 14 -6 13 -24 -6 -18 -19 -25 -21 -48 -12 -15 5 -29 10 -32 10 -2 0
-4 -310 -4 -690 0 -683 0 -690 20 -690 13 0 20 7 20 18 0 21 33 56 43 45 14
-13 6 -31 -16 -38 -21 -7 -21 -7 -2 -12 10 -3 32 -19 47 -35 34 -37 48 -30 20
9 -28 40 -13 63 66 105 44 23 67 40 66 51 -1 10 3 14 10 10 11 -7 15 -8 47
-11 12 -2 14 -11 8 -54 -12 -95 -21 -113 -59 -116 -18 -2 -36 2 -40 8 -5 8
-17 3 -38 -15 -26 -22 -30 -30 -22 -50 6 -16 6 -27 -2 -31 -7 -4 -8 -3 -4 4 5
8 -1 12 -18 12 -13 0 -31 3 -40 6 -9 3 -16 1 -16 -5 0 -6 12 -12 28 -12 21 -1
19 -3 -13 -9 -22 -5 -51 -11 -64 -16 -22 -6 -23 -5 -19 19 3 16 0 31 -8 38
-10 8 -13 -9 -13 -90 -1 -93 1 -101 18 -101 11 0 21 5 23 11 3 8 21 9 58 4
l55 -8 -35 -14 c-70 -28 -78 -34 -35 -28 22 3 51 8 64 12 17 4 22 3 17 -5 -9
-15 9 -15 51 0 29 10 36 10 43 -2 6 -8 10 -12 10 -7 0 4 11 0 25 -9 14 -9 34
-14 45 -11 11 3 23 1 26 -5 3 -5 17 -7 29 -4 13 3 27 1 30 -4 4 -6 20 -9 37
-6 17 2 42 0 57 -6 14 -6 28 -12 31 -12 3 -1 11 -5 18 -9 7 -5 12 -4 12 2 0 6
7 11 15 11 8 0 15 -4 15 -9 0 -15 171 -50 235 -47 33 1 71 8 85 16 44 24 91
30 108 14 21 -21 29 -8 9 14 -18 20 -22 42 -9 42 5 0 19 -9 32 -20 19 -17 24
-17 37 -5 18 19 24 19 17 0 -4 -10 0 -15 10 -15 12 0 15 6 10 25 -8 30 -1 31
43 4 20 -13 40 -18 51 -14 12 5 13 9 5 12 -7 3 -13 8 -13 13 0 11 69 10 76 -1
8 -14 18 -11 43 12 18 17 27 19 44 11 53 -24 80 -32 86 -27 3 4 -2 12 -12 20
-16 12 -16 13 8 19 18 5 32 1 47 -14 12 -11 26 -20 31 -20 4 0 23 -11 41 -25
36 -28 134 -64 154 -58 6 3 12 -1 12 -7 0 -7 13 -10 34 -9 19 2 38 0 42 -3 3
-4 19 -5 34 -1 20 4 39 -2 66 -21 21 -14 44 -26 51 -26 7 0 13 -4 13 -10 0 -5
12 -10 28 -11 15 0 21 -3 15 -6 -26 -10 -13 -25 17 -20 16 4 32 2 36 -4 3 -6
19 -9 34 -6 34 7 72 -2 64 -15 -4 -6 2 -5 14 1 16 9 21 7 27 -6 3 -11 9 -13
13 -7 9 13 65 17 57 4 -3 -6 -1 -10 4 -10 6 0 11 5 11 10 0 6 5 10 11 10 5 0
7 -4 4 -10 -3 -6 1 -7 10 -4 8 4 21 2 28 -4 19 -15 97 -26 97 -13 0 6 -10 11
-22 11 -12 0 -18 3 -14 7 10 10 76 13 76 4 0 -4 16 -7 35 -7 19 0 35 4 35 8 0
4 -5 8 -12 8 -6 0 -9 2 -6 5 3 3 24 2 46 -4 36 -8 42 -6 47 10 7 20 25 26 25
9 0 -5 -4 -10 -10 -10 -5 0 -10 -9 -10 -20 0 -11 7 -20 16 -20 8 0 13 4 9 9
-3 5 0 13 7 18 19 11 88 14 88 4 0 -15 74 -23 105 -11 l29 11 -30 19 c-18 13
-23 20 -13 20 9 0 28 -9 42 -20 22 -17 25 -25 17 -45 -13 -33 16 -42 52 -15
25 18 32 19 75 9 27 -6 57 -13 68 -15 48 -8 97 -23 108 -32 7 -6 28 -10 46
-10 33 1 33 1 10 14 -13 7 -41 16 -62 19 -20 4 -35 10 -32 14 5 10 -63 60
-122 90 -24 12 -43 28 -43 35 0 8 -7 16 -15 18 -9 2 -11 8 -7 15 6 10 35 6
122 -17 63 -16 116 -33 118 -39 2 -5 10 -7 19 -4 12 5 14 3 8 -7 -6 -10 -4
-12 9 -7 9 4 32 -2 51 -13 20 -11 37 -20 38 -20 2 0 3 16 4 36 1 41 7 49 46
58 19 4 29 2 33 -7 4 -11 15 -12 44 -7 43 8 60 -2 60 -34 0 -12 11 -45 25 -74
43 -92 29 -137 -33 -114 -15 6 -56 13 -92 16 l-65 6 27 -25 c31 -26 99 -41
147 -30 23 5 37 17 52 47 13 26 25 38 35 34 8 -3 14 -1 14 5 0 5 -6 12 -14 15
-8 3 -13 12 -12 21 3 19 66 29 66 11 0 -6 9 -1 20 12 17 20 20 37 20 122 0 94
-1 99 -20 93 -15 -5 -21 0 -28 27 -6 25 -15 35 -40 43 -50 14 -38 22 28 18
l60 -4 0 165 c0 122 -3 166 -12 169 -10 4 -10 6 0 6 23 2 12 21 -13 21 -14 0
-25 4 -25 9 0 5 -3 17 -7 26 -5 15 -3 16 16 6 12 -7 19 -16 16 -21 -3 -6 0 -7
8 -4 8 3 14 17 14 32 0 15 -2 21 -4 15 -3 -7 -9 -13 -14 -13 -12 0 0 53 14 61
18 12 -1 41 -23 34 -21 -7 -28 9 -10 20 14 9 -7 35 -26 35 -11 0 -13 22 -9
118 3 64 7 200 9 302 3 169 5 188 26 224 14 26 22 56 22 88 -1 26 4 50 9 54 6
4 9 44 7 101 -2 76 -6 97 -21 111 -17 15 -19 15 -28 -1 -10 -16 -12 -16 -42 5
-18 12 -35 27 -39 33 -5 6 -8 6 -8 -2 0 -7 -9 -13 -19 -13 -19 0 -20 17 -3 60
3 8 6 17 7 20 1 3 5 12 9 21 4 10 7 23 5 30 -6 50 12 50 80 4 28 -19 53 -35
56 -35 3 0 5 81 5 180 0 102 -4 180 -9 180 -5 0 -36 -8 -69 -19 l-60 -18 -7
54 c-7 58 4 85 34 82 23 -2 61 12 61 22 0 5 10 8 23 6 21 -2 22 1 25 95 l3 98
-26 -10 c-23 -9 -25 -7 -25 16 0 17 -7 28 -20 31 -11 3 -20 9 -20 14 0 5 -7 9
-15 9 -8 0 -15 -9 -15 -20 0 -11 5 -20 11 -20 7 0 18 -8 25 -17 10 -15 10 -21
-3 -35 -20 -22 -33 -23 -33 -3 0 8 -5 15 -11 15 -7 0 -9 -9 -6 -21 4 -15 -1
-23 -19 -31 -17 -8 -24 -19 -24 -40 0 -15 -4 -28 -10 -28 -5 0 -10 5 -10 10 0
6 -10 10 -21 10 -16 0 -19 -3 -11 -13 15 -17 9 -67 -12 -102 -9 -16 -14 -21
-11 -10 4 11 9 37 12 57 7 49 -11 56 -63 27 l-39 -23 30 33 c27 31 28 33 8 27
-19 -6 -22 -4 -16 11 7 17 6 17 -20 0 -18 -11 -27 -13 -27 -5 0 6 -11 1 -26
-13 -15 -14 -23 -17 -19 -8 4 12 0 15 -17 13 -13 -1 -26 -3 -31 -3 -4 -1 -25
-28 -47 -61 -21 -34 -42 -60 -47 -60 -4 1 -9 -4 -12 -11 -2 -7 1 -9 8 -5 13 9
14 -4 1 -24 -8 -13 -10 -12 -10 3 0 24 -8 22 -43 -15 -19 -21 -32 -28 -34 -21
-4 10 -10 10 -25 2 -20 -11 -20 -11 6 -38 34 -35 33 -42 -3 -28 -24 9 -32 8
-46 -6 -9 -9 -21 -17 -26 -17 -6 0 -7 -4 -4 -10 3 -5 0 -10 -9 -10 -8 0 -16
-4 -18 -9 -1 -4 -14 -11 -28 -15 -24 -7 -24 -7 -5 9 18 14 20 34 28 272 5 156
4 260 -1 265 -6 6 -13 -17 -17 -61 -5 -51 -11 -71 -21 -71 -8 0 -14 -4 -14
-10 0 -5 5 -10 10 -10 6 0 9 -30 8 -72 -1 -70 -1 -71 -7 -23 l-7 50 -8 -50
c-15 -99 -25 -93 -23 13 2 56 -1 102 -5 102 -4 0 -8 -7 -8 -15 0 -8 -7 -15
-15 -15 -8 0 -15 -7 -15 -15 0 -9 6 -12 15 -9 11 5 15 -1 15 -20 0 -14 -5 -26
-11 -26 -6 0 -9 6 -6 14 4 10 -2 13 -24 12 -19 -1 -29 3 -29 12 0 8 6 12 15 8
12 -4 13 -2 2 17 -22 39 -39 47 -67 30 -18 -10 -27 -25 -28 -46 -4 -64 -13
-89 -29 -82 -13 4 -14 3 -3 -9 16 -20 4 -96 -16 -96 -8 0 -14 -7 -14 -16 0 -8
5 -12 10 -9 6 4 10 -8 10 -29 0 -19 -5 -38 -11 -42 -6 -3 -9 -14 -6 -24 2 -10
-4 -58 -15 -106 -10 -49 -26 -127 -34 -174 -9 -47 -20 -99 -25 -116 -5 -17 -9
-44 -9 -60 0 -42 -13 -59 -30 -39 -10 12 -11 21 -1 43 12 26 12 26 -6 9 -16
-13 -22 -14 -33 -4 -12 10 -12 9 -1 -6 8 -9 11 -20 8 -24 -4 -3 5 -14 18 -25
32 -25 31 -41 0 -66 -28 -23 -32 -37 -10 -46 19 -7 19 -46 0 -73 -10 -14 -13
-32 -9 -47 3 -14 1 -47 -5 -73 -6 -26 -13 -66 -17 -87 l-6 -39 -16 25 c-31 46
-73 91 -79 84 -3 -3 1 -14 10 -24 10 -10 15 -21 12 -24 -3 -3 -1 -18 5 -34 9
-23 13 -25 21 -14 8 13 10 13 18 0 5 -8 7 -18 4 -24 -3 -5 -1 -6 5 -2 7 4 12
1 12 -8 0 -20 -17 -30 -23 -14 -3 7 -6 3 -6 -9 -1 -13 4 -23 9 -23 6 0 10 -42
9 -107 l0 -108 -34 -28 c-26 -21 -32 -24 -29 -10 2 11 -6 25 -21 36 -24 17
-24 17 -19 0 5 -16 4 -16 -10 1 -19 23 -30 16 -21 -13 5 -17 10 -19 24 -11 24
12 34 2 16 -16 -17 -17 -110 -20 -99 -2 4 7 3 8 -5 4 -6 -4 -19 -2 -28 6 -15
11 -16 11 -10 -4 6 -16 -3 -23 -25 -19 -4 0 -5 -6 -2 -14 4 -9 0 -15 -10 -15
-9 0 -16 4 -16 9 0 11 -37 25 -60 24 -82 -7 -110 -15 -110 -32 0 -22 -89 -137
-103 -133 -6 2 -13 -2 -17 -8 -5 -8 -13 -6 -25 7 -16 15 -18 15 -13 2 5 -13 1
-16 -17 -15 -19 1 -21 4 -14 18 5 10 14 18 19 18 6 0 10 5 10 11 0 6 -9 8 -20
4 -24 -8 -26 2 -4 27 16 17 18 17 30 0 13 -16 13 -16 14 1 0 10 21 44 48 76
37 47 55 60 85 66 26 5 37 12 37 24 0 9 6 23 12 29 9 9 10 15 2 20 -18 11 -14
64 5 69 16 4 24 32 47 157 5 26 4 28 -9 18 -12 -10 -16 -9 -20 8 -4 17 -2 20
15 15 14 -5 21 -1 25 14 3 12 9 21 13 21 11 0 11 -87 0 -116 -6 -14 -5 -26 0
-29 18 -11 11 -47 -10 -52 -11 -3 -20 -13 -20 -23 0 -10 -7 -20 -15 -24 -8 -3
-15 -10 -15 -17 0 -6 7 -8 17 -5 14 6 14 3 -3 -15 -14 -16 -16 -23 -6 -26 10
-4 10 -10 -3 -29 -14 -22 -14 -24 3 -24 10 0 22 4 28 8 5 5 28 15 52 22 29 9
41 18 40 29 -2 10 3 15 14 13 26 -4 58 16 58 38 0 10 5 20 12 22 9 3 9 12 -1
36 -9 20 -11 51 -8 80 3 26 3 41 1 35 -7 -16 -51 11 -57 35 -3 13 -7 9 -17
-13 -7 -16 -13 -32 -13 -35 0 -3 3 -24 7 -47 3 -24 2 -43 -2 -43 -5 0 -9 6 -9
13 0 6 -4 26 -8 42 -17 70 -17 115 0 142 l17 26 -41 -7 c-46 -7 -54 0 -16 14
19 7 25 17 25 40 0 27 -3 30 -32 31 -22 1 -26 3 -11 6 28 5 39 33 13 33 -10 0
-21 4 -25 9 -7 12 15 26 24 15 7 -10 10 -11 96 -23 35 -5 68 -12 72 -14 4 -3
17 7 27 22 l20 26 -22 -19 c-21 -18 -22 -18 -32 8 -13 36 -13 39 9 63 17 18
18 27 10 64 -7 31 -7 50 2 65 10 19 8 26 -10 45 -11 13 -21 18 -21 12 0 -6 7
-16 15 -23 11 -9 13 -16 6 -23 -6 -6 -13 -8 -16 -5 -11 11 -26 120 -19 141 4
12 6 55 5 95 -1 75 3 84 25 55 13 -17 14 -17 7 1 -5 16 -3 18 13 12 10 -4 33
-10 49 -13 17 -3 35 -9 40 -13 17 -12 95 27 95 48 0 10 18 36 41 57 55 53 86
97 64 89 -11 -5 -30 8 -60 38 -27 28 -48 42 -56 38 -12 -8 -9 -22 13 -51 9
-13 8 -24 -5 -51 -23 -49 -43 -64 -62 -48 -12 10 -19 7 -39 -17 -14 -15 -26
-22 -26 -15 0 6 5 12 10 12 6 0 10 4 10 10 0 5 -8 7 -17 3 -13 -4 -10 3 10 24
31 34 33 41 11 71 l-16 23 -15 -20 c-18 -26 -38 -28 -22 -3 10 16 5 29 -27 79
-30 46 -42 57 -51 48 -6 -7 -8 -18 -3 -25 9 -14 1 -52 -10 -45 -12 8 -20 78
-9 91 6 8 5 13 -6 18 -8 3 -15 12 -15 21 0 8 -4 15 -8 15 -5 0 -9 -13 -9 -29
0 -16 -7 -36 -16 -45 -20 -21 -32 -3 -15 23 10 16 10 27 0 53 -6 17 -10 34 -7
36 2 2 18 -3 36 -12 18 -9 33 -15 35 -14 5 5 7 64 6 138 l-2 74 -66 -64 c-61
-60 -65 -63 -59 -35 5 23 4 26 -4 15 -10 -15 -12 -13 -15 12 0 6 -14 15 -29
19 -24 7 -27 5 -22 -11 4 -13 -1 -22 -16 -31 -20 -10 -25 -8 -46 17 -41 50
-42 95 -2 115 8 4 31 15 52 25 37 18 37 19 13 22 -14 2 -26 8 -26 13 0 15 -42
10 -60 -6 -25 -23 -48 -8 -55 36 l-7 39 -58 0 c-32 0 -66 -3 -75 -6 -14 -6
-14 -8 2 -27 16 -19 14 -18 -27 4 -25 13 -48 29 -52 34 -11 15 -10 103 2 110
8 5 101 0 340 -20 30 -2 86 -4 123 -5 87 0 93 -13 38 -79 -27 -32 -39 -55 -35
-66 4 -9 12 -14 19 -11 8 3 15 -7 19 -27 7 -31 8 -31 21 -13 8 11 15 33 15 50
0 29 1 29 16 10 15 -18 15 -18 2 5 -11 19 -12 34 -4 73 l10 49 66 -3 c61 -3
65 -4 68 -28 3 -30 -58 -100 -88 -100 -11 0 -20 -4 -20 -10 0 -5 11 -10 24
-10 13 0 30 -2 38 -5 21 -7 68 70 68 111 l0 35 75 -2 c41 -1 75 -4 75 -7 0 -3
-54 -58 -121 -123 -109 -106 -123 -117 -145 -109 -31 12 -31 3 1 -22 14 -11
23 -23 20 -27 -2 -5 1 -16 8 -25 11 -14 24 -4 117 86 57 57 107 102 111 101 4
-2 13 13 19 32 22 66 80 96 149 76 22 -6 19 -10 -46 -66 -38 -33 -77 -70 -86
-82 -16 -20 -15 -23 1 -44 15 -18 22 -20 38 -11 15 8 23 7 38 -6 18 -16 18
-16 6 5 -19 29 3 57 38 48 14 -3 21 -2 18 4 -4 5 5 18 19 29 14 11 25 24 25
29 0 5 17 26 38 46 36 35 39 36 61 21 12 -9 31 -30 42 -48 22 -36 24 -23 7 33
-16 52 -76 82 -140 71 -24 -5 -70 -7 -103 -5 -103 7 -357 25 -420 30 -33 3
-97 5 -142 4 -45 0 -88 3 -94 7 -7 4 -40 6 -74 5 -49 -2 -66 2 -80 16 -13 13
-20 14 -23 5 -4 -14 -34 -16 -47 -3 -6 5 -54 12 -107 16 -75 5 -98 3 -98 -6 0
-8 -5 -6 -13 5 -11 16 -40 18 -292 21 -251 3 -418 11 -436 21 -4 2 -65 6 -135
8 -144 4 -170 -3 -201 -54 -17 -29 -33 -37 -46 -23 -9 9 19 53 52 80 l26 23
-71 0 c-71 0 -72 0 -76 -29z m160 -91 c2 -36 -2 -60 -8 -60 -6 0 -10 26 -10
60 0 33 4 60 8 60 4 0 9 -27 10 -60z m377 51 c22 -5 33 -9 25 -10 -8 -1 -32
-17 -54 -37 -37 -34 -62 -40 -36 -9 8 10 9 15 1 15 -6 0 -11 11 -11 25 0 28 9
29 75 16z m497 -45 c16 -19 19 -20 31 -5 9 12 27 16 67 15 53 -1 54 -2 61 -34
4 -18 3 -35 -2 -38 -5 -3 -4 -14 1 -25 7 -13 8 -25 1 -37 -7 -11 -10 -13 -11
-3 0 10 -3 11 -13 3 -7 -6 -23 -8 -36 -5 -17 4 -19 8 -9 14 10 7 9 9 -4 9 -10
0 -18 5 -18 10 0 17 -17 11 -23 -9 -3 -11 -16 -20 -36 -23 -24 -4 -34 0 -46
19 -17 26 -38 31 -28 7 4 -10 -1 -17 -16 -21 -11 -3 -21 -9 -21 -14 0 -5 -9
-4 -19 3 -14 8 -20 23 -19 49 0 36 -28 99 -44 99 -4 0 -8 3 -8 8 0 4 39 5 87
3 74 -3 89 -6 105 -25z m-1003 -90 c11 -23 11 -30 0 -36 -10 -7 -10 -16 1 -49
11 -35 11 -44 -5 -78 -10 -21 -22 -41 -27 -44 -11 -7 -108 24 -142 46 -13 9
-28 29 -31 45 -3 16 -13 31 -21 34 -8 3 -14 15 -14 26 0 12 4 19 9 15 5 -3 12
-1 16 4 3 6 12 8 19 5 7 -3 16 2 20 11 9 23 86 55 126 53 27 -2 38 -9 49 -32z
m706 24 c17 -4 26 -8 20 -9 -6 -1 -5 -5 2 -9 6 -4 15 -20 18 -35 6 -22 4 -26
-9 -21 -11 4 -16 1 -16 -10 0 -9 6 -16 14 -16 15 0 26 -21 26 -48 -1 -16 -2
-15 -14 1 -15 19 -51 23 -61 7 -4 -6 -15 -8 -25 -5 -18 6 -35 -19 -24 -36 6
-11 2 -11 -20 -3 -9 3 -16 12 -16 20 0 12 -4 12 -21 2 -18 -11 -23 -10 -40 11
-21 25 -21 42 -1 49 7 2 10 -2 6 -11 -4 -10 1 -15 13 -14 21 2 48 86 33 101
-12 12 27 34 60 34 14 0 39 -4 55 -8z m490 -20 c3 -5 1 -10 -4 -10 -6 0 -11 5
-11 10 0 6 2 10 4 10 3 0 8 -4 11 -10z m-1509 -13 c-15 -11 -16 -19 -8 -50 6
-21 7 -35 2 -32 -5 3 -11 -9 -13 -27 -2 -18 -5 -1 -5 39 -2 69 2 80 32 82 6 1
2 -5 -8 -12z m452 -93 c13 5 12 2 -3 -9 -19 -15 -20 -14 -27 22 -3 21 -3 52 0
68 6 24 8 18 10 -28 3 -50 6 -58 20 -53z m18 58 c-20 -20 -22 -1 -4 31 11 20
12 21 16 3 2 -10 -3 -26 -12 -34z m-99 -34 c-3 -7 -5 -2 -5 12 0 14 2 19 5 13
2 -7 2 -19 0 -25z m178 -2 c12 -11 10 -15 -12 -25 -29 -13 -41 -8 -25 12 7 8
9 17 5 20 -3 4 -1 7 6 7 7 0 19 -6 26 -14z m922 -8 c-3 -8 -6 -5 -6 6 -1 11 2
17 5 13 3 -3 4 -12 1 -19z m118 -18 c3 -5 2 -10 -4 -10 -5 0 -13 5 -16 10 -3
6 -2 10 4 10 5 0 13 -4 16 -10z m-248 -20 c9 0 12 -6 8 -19 -4 -13 0 -20 16
-24 24 -6 49 13 49 37 0 23 13 20 40 -9 l23 -24 -29 2 c-23 2 -28 -2 -26 -16
2 -9 -2 -16 -9 -15 -6 2 -14 -3 -17 -11 -3 -8 0 -11 7 -7 6 4 11 2 11 -3 0 -6
-7 -11 -15 -11 -8 0 -15 5 -15 10 0 6 -6 10 -14 10 -18 0 -56 60 -55 86 0 11
3 14 6 7 2 -7 11 -13 20 -13z m-217 -19 c0 -5 -7 -12 -16 -15 -14 -5 -15 -4
-4 9 14 17 20 19 20 6z m-690 -57 c0 -33 -4 -54 -11 -54 -7 0 -9 16 -5 46 5
45 5 46 -19 40 -14 -4 -25 -3 -25 2 0 14 10 20 35 20 23 0 25 -4 25 -54z m590
34 c0 -5 5 -6 10 -3 6 3 10 -1 10 -10 0 -12 -6 -14 -27 -9 -15 4 -33 7 -40 7
-18 0 -16 14 4 25 19 11 43 5 43 -10z m1310 14 c0 -4 -10 -13 -22 -21 -23 -14
-23 -14 -4 8 20 22 26 25 26 13z m-524 -20 c-3 -5 4 -27 15 -50 l21 -41 -22
-23 c-22 -22 -22 -22 -11 -1 8 16 8 22 -3 26 -15 6 -31 71 -21 87 3 6 11 10
16 10 6 0 8 -4 5 -8z m-904 -24 c7 -13 11 -26 10 -30 -1 -5 7 -8 18 -8 19 0
47 -36 36 -48 -3 -3 -6 -1 -6 5 0 14 -29 25 -42 17 -13 -8 41 -36 75 -39 25
-2 28 1 24 22 -2 12 -3 23 -2 23 1 0 16 -13 33 -28 28 -25 38 -28 84 -25 50 4
54 3 66 -23 6 -15 12 -40 12 -54 0 -14 11 -46 25 -72 30 -56 33 -86 5 -43 -22
33 -26 29 -8 -9 16 -35 -10 -64 -51 -58 -20 3 -29 0 -28 -10 1 -38 -4 -59 -14
-53 -6 4 -8 13 -5 21 4 11 -1 13 -24 9 -22 -4 -33 0 -48 20 -11 14 -23 22 -26
17 -8 -13 42 -62 58 -56 20 8 30 -14 16 -31 -7 -8 -9 -15 -5 -15 4 0 2 -7 -5
-15 -18 -21 -30 -9 -25 25 2 18 -1 30 -8 31 -7 1 -16 2 -22 4 -5 1 -15 3 -20
3 -6 1 -16 12 -24 23 -11 18 -11 23 1 30 9 6 4 9 -17 10 -17 1 -22 3 -12 6 11
3 17 14 16 31 l-1 27 -8 -25 c-7 -22 -8 -21 -11 15 l-2 40 -6 -45 -6 -45 -42
0 c-23 0 -48 -6 -54 -12 -20 -20 -58 -15 -84 12 -14 13 -25 29 -25 35 0 6 -4
8 -10 5 -5 -3 -12 6 -16 21 -6 23 -1 32 25 56 19 17 43 28 61 28 35 0 37 3 10
30 -11 11 -20 25 -20 32 0 9 3 9 12 0 21 -21 36 -14 30 15 -6 32 -21 49 -47
54 -10 2 -22 16 -26 31 -6 25 -5 27 11 18 11 -6 22 -14 25 -20 10 -16 76 32
71 53 -6 24 11 21 26 -5z m170 0 c-7 -7 -12 -8 -12 -2 0 14 12 26 19 19 2 -3
-1 -11 -7 -17z m1193 -18 c-10 -11 -22 -20 -28 -20 -5 0 1 9 14 20 31 25 37
25 14 0z m-1895 -79 c0 -50 5 -93 10 -96 6 -3 10 -35 10 -71 0 -83 -19 -84
-22 -1 l-2 62 -3 -52 c-7 -99 -18 -53 -14 59 2 62 4 130 4 151 1 20 5 37 9 37
4 0 8 -40 8 -89z m980 69 c0 -5 -2 -10 -4 -10 -3 0 -8 5 -11 10 -3 6 -1 10 4
10 6 0 11 -4 11 -10z m-577 -87 c-6 -2 -9 -13 -6 -24 4 -13 -2 -27 -16 -40
-11 -11 -21 -23 -21 -27 0 -17 -111 -123 -122 -116 -8 5 -9 2 -5 -9 6 -17 -26
-47 -51 -47 -20 0 -26 29 -11 48 8 10 3 7 -11 -7 -14 -15 -34 -32 -43 -40 -15
-12 -17 -12 -11 3 8 22 -12 21 -25 -1 -9 -15 -10 -12 -11 15 0 28 6 37 47 62
35 22 42 31 30 36 -14 5 -11 11 16 38 18 17 40 45 49 63 18 36 79 71 141 82
36 6 43 4 52 -13 7 -13 6 -21 -2 -23z m-356 -55 c-2 -18 -4 -6 -4 27 0 33 2
48 4 33 2 -15 2 -42 0 -60z m920 41 c2 -18 -1 -28 -7 -24 -6 3 -10 20 -10 37
0 39 12 29 17 -13z m-1017 -19 c0 -5 -5 -21 -10 -36 -8 -19 -7 -30 1 -40 11
-14 11 -25 -6 -189 -6 -53 -29 -105 -47 -105 -28 0 -70 19 -63 29 3 5 1 12 -4
15 -5 4 -8 21 -6 38 3 17 0 37 -6 45 -15 17 17 31 34 14 25 -25 34 -10 40 70
3 50 10 85 18 90 10 6 10 13 1 33 -8 18 -8 26 -1 26 7 0 9 11 7 24 -5 24 -4
24 19 9 12 -8 23 -19 23 -23z m1354 5 c3 -10 -1 -15 -14 -15 -20 0 -33 13 -23
24 11 11 31 6 37 -9z m129 3 c3 -10 8 -10 21 2 16 13 18 12 15 -5 -2 -11 0
-26 4 -32 9 -14 1 -33 -14 -33 -5 0 -9 7 -9 15 0 26 -31 4 -37 -26 -5 -24 -8
-27 -24 -18 -11 5 -19 16 -19 24 0 8 -4 15 -10 15 -13 0 -13 -16 1 -42 10 -18
9 -20 -6 -15 -11 5 -15 3 -12 -5 4 -14 20 -15 62 -4 36 9 32 -13 -5 -25 -16
-6 -30 -14 -30 -19 0 -4 -14 -13 -32 -21 -30 -12 -32 -11 -61 22 -16 19 -24
24 -18 12 6 -12 16 -25 21 -28 19 -12 10 -23 -25 -27 -25 -3 -32 -1 -24 8 6 8
5 14 -6 18 -9 3 -13 2 -10 -4 3 -6 1 -10 -6 -10 -7 0 -9 -3 -6 -7 4 -3 2 -12
-4 -20 -8 -9 -8 -13 -1 -13 8 0 8 -9 0 -30 -8 -25 -13 -28 -24 -19 -10 8 -11
15 -4 24 5 6 8 14 5 17 -3 2 4 22 15 43 11 22 20 55 20 74 0 34 0 34 21 15 21
-19 21 -19 8 9 -7 15 -16 27 -21 27 -14 0 -9 20 13 43 l20 22 20 -24 c10 -13
19 -18 19 -12 0 7 4 10 8 7 14 -8 81 16 99 36 19 21 30 23 36 6z m207 -13 c0
-33 -15 -33 -16 0 -1 14 2 25 7 25 5 0 9 -11 9 -25z m-90 -74 c0 -5 9 -11 20
-14 15 -4 20 -14 20 -37 0 -21 -4 -29 -12 -24 -7 5 -8 3 -3 -6 10 -17 12 -120
2 -120 -5 0 -14 14 -20 30 -6 17 -15 30 -20 30 -4 0 -5 5 -2 10 4 6 -6 36 -22
68 -34 71 -32 67 -40 59 -4 -4 -1 -13 5 -19 15 -15 16 -48 2 -48 -5 0 -10 9
-10 21 0 11 -4 18 -9 14 -5 -3 -13 0 -17 6 -3 6 6 24 22 39 27 26 31 26 57 13
15 -7 27 -17 27 -22z m1438 19 c-7 -11 -17 -20 -22 -20 -5 0 -1 9 9 20 10 11
20 20 22 20 2 0 -2 -9 -9 -20z m-2941 -22 c-3 -8 -6 -5 -6 6 -1 11 2 17 5 13
3 -3 4 -12 1 -19z m1374 -94 c10 -13 10 -17 0 -24 -8 -4 -10 -13 -7 -19 4 -6
3 -11 -3 -11 -5 0 -14 7 -19 16 -6 11 -11 13 -16 5 -10 -16 -26 -14 -26 4 0 8
9 15 20 15 11 0 20 7 20 15 0 19 14 19 31 -1z m253 0 c7 -18 -10 -44 -27 -44
-5 0 -2 9 8 20 10 11 13 20 7 20 -7 0 -12 5 -12 10 0 16 17 12 24 -6z m-1687
-16 c-3 -8 -6 -5 -6 6 -1 11 2 17 5 13 3 -3 4 -12 1 -19z m900 -49 c-18 -8
-35 -14 -39 -12 -14 7 4 33 23 33 10 0 18 3 18 8 -4 21 3 24 15 6 13 -17 12
-20 -17 -35z m582 22 c11 -7 6 -15 -20 -39 -35 -31 -49 -33 -49 -5 0 9 6 13
14 10 8 -3 22 1 33 8 10 9 13 14 6 15 -7 0 -13 5 -13 10 0 12 10 13 29 1z
m231 -1 c0 -5 -4 -10 -10 -10 -5 0 -10 5 -10 10 0 6 5 10 10 10 6 0 10 -4 10
-10z m-1393 -22 c-3 -8 -6 -5 -6 6 -1 11 2 17 5 13 3 -3 4 -12 1 -19z m258
-11 c0 -25 -4 -33 -17 -32 -10 1 -21 5 -25 10 -5 4 -2 5 5 1 17 -10 15 5 -4
32 -15 21 -14 22 13 22 26 0 29 -3 28 -33z m-578 -24 c-3 -10 -5 -2 -5 17 0
19 2 27 5 18 2 -10 2 -26 0 -35z m457 18 c-2 -3 -12 3 -22 13 -16 17 -16 18 5
5 12 -7 20 -15 17 -18z m1596 14 c20 -24 6 -28 -15 -5 -10 11 -13 20 -8 20 6
0 16 -7 23 -15z m-1535 -4 c6 -11 -33 -26 -43 -16 -4 3 0 10 8 15 19 12 27 12
35 1z m1035 -11 c0 -5 -4 -10 -10 -10 -5 0 -10 5 -10 10 0 6 5 10 10 10 6 0
10 -4 10 -10z m165 0 c3 -5 1 -10 -4 -10 -6 0 -11 5 -11 10 0 6 2 10 4 10 3 0
8 -4 11 -10z m-1288 -23 c-6 -20 -27 -19 -27 2 0 14 5 19 15 14 9 -3 14 -10
12 -16z m1073 19 c0 -3 -4 -8 -10 -11 -5 -3 -10 -1 -10 4 0 6 5 11 10 11 6 0
10 -2 10 -4z m-843 -21 c6 -18 -23 -55 -44 -55 -7 0 -13 9 -13 20 0 11 7 20
15 20 8 0 15 7 15 15 0 20 19 19 27 0z m227 -9 c-3 -9 -10 -13 -15 -10 -5 3
-3 11 4 19 15 16 19 13 11 -9z m296 -6 c0 -14 -37 -50 -52 -50 -6 0 2 13 18
30 33 33 34 34 34 20z m1930 6 c0 -3 -4 -8 -10 -11 -5 -3 -10 -1 -10 4 0 6 5
11 10 11 6 0 10 -2 10 -4z m-2629 -70 c-11 -13 -16 -12 -37 11 -19 20 -22 29
-12 40 10 12 15 10 36 -11 21 -21 23 -27 13 -40z m453 24 l7 -25 -15 25 c-17
28 -21 50 -7 35 5 -6 12 -21 15 -35z m521 30 c3 -6 -1 -7 -9 -4 -18 7 -21 14
-7 14 6 0 13 -4 16 -10z m195 -11 c-7 -11 -14 -18 -17 -15 -8 8 5 36 17 36 7
0 7 -6 0 -21z m-1145 1 c3 -5 2 -10 -4 -10 -5 0 -13 5 -16 10 -3 6 -2 10 4 10
5 0 13 -4 16 -10z m1055 0 c0 -5 -9 -14 -19 -19 -16 -9 -18 -8 -14 9 5 20 33
29 33 10z m-999 -32 c-27 -21 -37 -22 -46 -7 -10 15 25 37 48 31 20 -5 20 -6
-2 -24z m124 22 c3 -5 1 -10 -4 -10 -6 0 -11 5 -11 10 0 6 2 10 4 10 3 0 8 -4
11 -10z m95 -10 c0 -5 -10 -15 -22 -21 -23 -12 -23 -12 -4 10 21 23 26 26 26
11z m-270 -30 c0 -5 -4 -10 -10 -10 -5 0 -10 5 -10 10 0 6 5 10 10 10 6 0 10
-4 10 -10z m430 -9 c0 -3 -10 -12 -22 -20 -16 -9 -19 -9 -11 -1 6 7 9 19 6 26
-4 10 0 12 11 8 9 -3 16 -9 16 -13z m1570 15 c0 -2 -13 -6 -30 -8 -16 -3 -30
-1 -30 4 0 4 14 8 30 8 17 0 30 -2 30 -4z m-980 -51 c7 -9 8 -15 2 -15 -5 0
-12 7 -16 15 -3 8 -4 15 -2 15 2 0 9 -7 16 -15z m935 5 c3 -5 -1 -10 -10 -10
-9 0 -13 5 -10 10 3 6 8 10 10 10 2 0 7 -4 10 -10z m565 -10 c0 -5 -7 -10 -15
-10 -8 0 -15 5 -15 10 0 6 7 10 15 10 8 0 15 -4 15 -10z m-1450 -57 c0 -32
-12 -23 -15 12 -2 14 1 23 6 19 5 -3 9 -17 9 -31z m939 22 l29 -14 -13 -61
c-11 -51 -11 -59 1 -49 8 6 14 17 14 24 0 6 9 20 20 30 20 18 20 17 20 -8 0
-19 4 -25 15 -21 10 4 15 20 15 45 0 28 5 41 19 49 31 16 34 13 28 -30 -3 -23
-1 -40 5 -40 16 0 52 22 77 46 13 13 33 24 45 24 18 0 19 -2 6 -11 -18 -13 16
-9 129 16 83 18 222 17 228 -2 3 -8 -8 -10 -36 -6 -22 3 -78 0 -123 -8 -74
-12 -79 -14 -48 -20 19 -3 26 -7 15 -8 -33 -2 -211 -48 -233 -60 -27 -14 -45
-14 -36 1 5 7 2 9 -7 6 -8 -3 -39 -13 -69 -23 -94 -30 -136 -89 -128 -180 3
-37 5 -40 34 -41 35 -1 54 -10 54 -26 0 -7 -14 -8 -39 -4 -27 4 -41 2 -45 -7
-10 -23 -64 52 -69 97 -2 22 -10 68 -17 101 -11 55 -8 142 6 179 8 20 65 21
103 1z m-2689 -34 c0 -6 -4 -11 -10 -11 -5 0 -10 4 -10 9 0 5 -3 18 -7 28 -6
17 -6 17 10 1 9 -9 17 -21 17 -27z m436 12 c-10 -10 -19 5 -10 18 6 11 8 11
12 0 2 -7 1 -15 -2 -18z m68 -3 c-9 -16 -17 -30 -18 -30 -1 0 -1 14 2 30 2 17
10 30 17 30 11 0 10 -6 -1 -30z m261 1 c3 -5 1 -12 -5 -16 -5 -3 -10 1 -10 9
0 18 6 21 15 7z m49 -6 c-4 -8 -10 -12 -15 -9 -11 6 -2 24 11 24 5 0 7 -7 4
-15z m133 9 c-3 -3 -12 -4 -19 -1 -8 3 -5 6 6 6 11 1 17 -2 13 -5z m-873 -23
c9 -14 -4 -41 -20 -41 -8 0 -14 4 -14 9 0 5 -13 4 -30 -2 -37 -14 -38 -23 -3
-22 19 0 29 -6 31 -18 3 -14 -2 -17 -22 -13 -19 3 -26 0 -26 -12 0 -14 -2 -14
-13 2 -7 10 -11 33 -9 52 4 29 8 34 23 29 11 -4 19 -2 19 4 0 16 55 27 64 12z
m651 -12 c11 -17 -1 -21 -15 -4 -8 9 -8 15 -2 15 6 0 14 -5 17 -11z m-288 -21
c-3 -8 -6 -5 -6 6 -1 11 2 17 5 13 3 -3 4 -12 1 -19z m346 15 c-7 -2 -13 -13
-13 -23 0 -23 -16 -35 -25 -20 -8 13 22 50 39 49 6 0 6 -3 -1 -6z m123 -81
c-13 -12 -18 9 -10 45 l8 38 4 -39 c2 -21 1 -41 -2 -44z m-260 53 c4 -8 10
-12 16 -9 13 8 60 -37 54 -53 -3 -7 -1 -13 5 -13 6 0 9 -6 6 -14 -3 -7 0 -19
6 -25 17 -17 27 -13 20 7 -5 15 -4 14 9 -2 8 -10 19 -16 24 -13 6 3 16 2 24
-3 12 -7 11 -12 -4 -29 -17 -19 -19 -19 -50 -2 -20 11 -39 15 -51 11 -20 -8
-20 -8 0 -15 33 -11 49 -21 53 -33 2 -7 -1 -12 -7 -12 -6 0 -11 7 -11 15 0 8
-8 15 -17 14 -10 0 -13 -3 -6 -5 7 -3 9 -12 6 -20 -3 -8 -1 -14 5 -14 5 0 21
-12 35 -26 16 -15 33 -24 42 -20 8 3 15 1 15 -3 0 -5 7 -11 14 -14 9 -4 13 -1
10 6 -2 7 6 23 19 35 21 20 25 21 37 7 16 -19 -5 -46 -68 -82 -50 -30 -66 -24
-32 12 26 28 17 34 -12 8 -17 -15 -21 -15 -29 -3 -5 8 -7 23 -5 33 6 24 -3 26
-106 29 -77 3 -88 1 -88 -14 0 -9 4 -19 10 -23 5 -3 7 -12 3 -20 -4 -11 2 -15
21 -15 15 0 30 -8 36 -20 7 -13 7 -20 1 -20 -6 0 -22 -11 -36 -26 -14 -14 -30
-22 -35 -19 -16 10 -12 -4 13 -40 22 -33 24 -33 41 -17 18 16 18 15 13 -20 -7
-44 16 -71 52 -61 23 6 23 5 16 -45 -9 -70 -32 -124 -88 -210 -26 -40 -47 -81
-47 -91 0 -28 -11 -52 -21 -45 -5 3 -6 -1 -3 -9 3 -8 -3 -21 -13 -28 -22 -16
-43 -47 -25 -35 7 4 12 2 12 -3 0 -11 -54 -51 -114 -84 -30 -16 -32 -16 -44 0
-12 16 -9 19 35 24 26 3 36 7 22 7 -50 3 -89 24 -105 55 -37 71 -71 165 -58
160 21 -8 17 41 -5 61 -21 19 -128 36 -117 18 4 -6 0 -25 -9 -43 -15 -29 -15
-32 1 -50 22 -24 14 -32 -19 -20 -25 10 -25 9 -14 -17 22 -51 79 -157 98 -184
10 -14 19 -31 19 -38 0 -6 14 -23 30 -37 17 -14 30 -29 28 -34 -8 -21 -118
-91 -167 -105 -62 -19 -65 -16 -76 53 -5 35 -10 43 -28 43 l-22 1 23 18 c31
27 30 61 -4 61 -15 0 -23 4 -19 11 4 6 13 8 21 5 11 -4 14 5 14 35 0 41 28
166 57 249 8 25 17 56 20 70 2 13 7 27 10 30 2 3 35 5 71 5 l66 0 32 125 c42
169 77 237 143 277 42 27 52 29 62 17 14 -17 33 -19 26 -1 -8 22 12 57 33 57
11 0 20 7 20 16 0 10 -6 13 -18 10 -12 -4 -26 2 -38 15 l-19 22 28 -7 c15 -3
27 -3 26 1 -3 20 2 24 16 13 22 -19 30 -5 30 55 1 46 5 59 30 85 32 34 43 37
51 15z m474 -30 c0 -25 -4 -45 -10 -45 -5 0 -10 20 -10 45 0 25 5 45 10 45 6
0 10 -20 10 -45z m2025 -73 c0 -59 4 -95 13 -103 25 -26 14 -39 -17 -21 -28
16 -34 16 -103 -2 -40 -10 -78 -21 -84 -23 -8 -3 -12 11 -12 37 -1 38 2 43 45
70 25 16 51 31 56 33 6 2 12 17 13 33 1 16 2 34 3 41 1 12 57 33 76 29 6 -2
10 -41 10 -94z m-2184 40 c-7 -2 -18 1 -23 6 -8 8 -4 9 13 5 13 -4 18 -8 10
-11z m784 -1 c-3 -6 -11 -11 -17 -11 -6 0 -6 6 2 15 14 17 26 13 15 -4z m-628
-92 c-7 -60 -17 -59 -17 0 0 35 4 50 11 46 6 -4 9 -24 6 -46z m513 37 c0 -3
-4 -8 -10 -11 -5 -3 -10 -1 -10 4 0 6 5 11 10 11 6 0 10 -2 10 -4z m-730 -51
c-7 -9 -15 -13 -17 -11 -7 7 7 26 19 26 6 0 6 -6 -2 -15z m40 -31 c-7 -31 -6
-35 8 -29 11 4 9 -3 -8 -22 -41 -47 -44 -49 -26 -20 15 25 15 29 1 43 -19 19
-19 24 1 52 21 31 34 19 24 -24z m-80 -20 c-18 -21 -24 -10 -8 15 7 12 14 17
16 11 2 -6 -2 -17 -8 -26z m916 -9 c11 -17 14 -34 9 -57 -4 -18 -4 -30 1 -25
10 9 44 -22 44 -40 0 -8 -6 -13 -12 -12 -28 3 -40 -2 -64 -28 -22 -24 -28 -25
-62 -17 l-37 9 3 55 c2 37 9 60 21 70 10 9 26 28 35 43 23 34 41 34 62 2z
m-1454 -39 c7 5 8 2 3 -5 -5 -9 -13 -7 -31 10 -13 12 -24 27 -24 32 0 5 9 -2
21 -17 11 -14 25 -23 31 -20z m-140 -13 c-5 -83 -9 -90 -11 -20 0 37 2 67 7
67 4 0 6 -21 4 -47z m2884 8 c-37 -41 -126 -66 -141 -41 -4 6 -1 17 5 26 10
11 16 11 26 3 17 -14 59 -4 92 22 30 23 42 17 18 -10z m-2785 -7 l24 -25 -25
-19 c-23 -17 -49 -17 -51 1 -1 5 -2 15 -3 22 -3 16 12 47 23 47 4 0 18 -12 32
-26z m2256 -24 c-1 -12 -5 -16 -10 -11 -5 5 -6 14 -3 20 11 16 15 13 13 -9z
m134 -11 c24 -17 28 -25 22 -47 -4 -15 -6 -35 -5 -44 0 -10 -6 -18 -15 -18 -9
0 -22 -8 -29 -17 -7 -10 -15 -16 -18 -13 -6 6 5 160 11 160 3 0 18 -9 34 -21z
m-681 -5 c0 -3 -6 -12 -14 -19 -12 -12 -15 -11 -19 5 -4 15 0 20 14 20 10 0
19 -3 19 -6z m253 -15 c-4 -13 -9 -17 -15 -11 -11 11 -3 32 12 32 4 0 6 -9 3
-21z m-1259 -45 c3 -8 2 -12 -4 -9 -6 3 -10 10 -10 16 0 14 7 11 14 -7z m-804
-19 c0 -8 -4 -15 -10 -15 -5 0 -7 7 -4 15 4 8 8 15 10 15 2 0 4 -7 4 -15z
m474 6 c3 -5 -3 -11 -14 -14 -13 -3 -20 0 -20 9 0 15 26 19 34 5z m952 -49
c-10 -2 -22 0 -28 6 -6 6 0 7 19 4 21 -5 23 -7 9 -10z m-1452 -46 c-10 -25
-22 -9 -16 20 4 21 7 23 13 11 5 -8 6 -22 3 -31z m915 -2 c-15 -18 -39 -18
-39 0 0 16 19 25 38 18 9 -3 10 -8 1 -18z m29 -12 c-10 -12 -10 -16 0 -19 21
-8 13 -21 -17 -25 -24 -4 -27 -1 -23 16 6 28 32 57 44 50 5 -3 3 -13 -4 -22z
m499 -2 c9 0 13 -6 9 -15 -3 -8 -1 -15 4 -15 6 0 10 -11 10 -25 0 -15 6 -38
14 -53 32 -65 28 -102 -8 -66 -15 14 -16 14 -16 -5 0 -11 5 -23 10 -26 6 -4 8
-15 5 -26 -8 -23 8 -25 26 -3 10 13 10 17 -2 25 -9 6 -10 9 -2 9 26 0 44 -60
45 -147 2 -78 0 -87 -21 -104 -27 -22 -42 -17 -65 23 -11 17 -15 29 -10 26 5
-2 20 6 33 19 19 18 21 23 8 23 -20 0 -23 16 -4 23 7 3 5 6 -6 6 -14 1 -17 -5
-15 -26 2 -19 -2 -28 -14 -31 -10 -2 -18 2 -18 10 0 8 -5 19 -11 25 -15 15
-49 110 -49 136 0 10 5 15 10 12 6 -3 10 -1 10 5 0 6 -7 13 -15 16 -8 3 -18
22 -22 42 l-7 37 -11 -50 c-8 -32 -9 -57 -3 -69 6 -10 6 -22 1 -27 -17 -17
-34 10 -45 75 -11 66 -11 69 21 135 8 16 115 61 119 49 2 -4 11 -8 19 -8z
m-1472 -66 l-15 -39 6 40 c6 44 16 65 21 49 2 -6 -4 -28 -12 -50z m647 29 c-6
-2 -9 -10 -6 -15 4 -7 2 -8 -4 -4 -18 11 -14 26 6 25 10 0 12 -3 4 -6z m58
-116 c0 -13 -29 12 -42 37 -10 19 -8 18 16 -3 14 -14 26 -29 26 -34z m-723 21
c-3 -8 -6 -5 -6 6 -1 11 2 17 5 13 3 -3 4 -12 1 -19z m2023 1 c0 -6 -4 -7 -10
-4 -5 3 -10 11 -10 16 0 6 5 7 10 4 6 -3 10 -11 10 -16z m-1272 -67 c2 -7 -9
-17 -25 -23 -15 -6 -38 -20 -50 -31 -13 -12 -26 -18 -30 -15 -9 9 76 89 90 84
6 -2 13 -9 15 -15z m8 -47 c-3 -9 1 -18 9 -22 9 -3 13 -12 10 -23 -3 -9 0 -48
6 -86 6 -38 13 -89 14 -114 2 -25 1 -33 -2 -17 -6 36 -23 35 -23 -3 0 -16 -5
-30 -11 -30 -5 0 -9 12 -7 28 5 42 -16 38 -23 -5 -6 -37 -6 -37 -8 -6 -1 42
-21 54 -21 14 0 -22 -5 -31 -16 -31 -10 0 -13 6 -9 19 3 10 1 29 -4 42 l-10
24 -1 -25 c0 -14 -7 -36 -15 -50 l-15 -25 6 30 c8 35 32 107 63 184 17 41 18
52 7 48 -8 -3 -17 1 -20 10 -8 19 2 32 12 16 5 -8 13 -7 27 3 17 13 18 16 5
24 -12 8 -10 10 9 10 17 0 22 -4 17 -15z m594 -45 c-6 -11 -13 -20 -16 -20 -2
0 0 9 6 20 6 11 13 20 16 20 2 0 0 -9 -6 -20z m-1306 -6 c24 -9 19 -19 -9 -20
-15 -1 -25 3 -25 12 0 15 10 17 34 8z m1729 -26 c-2 -51 -4 -55 -12 -28 -5 14
-4 33 1 43 12 24 13 22 11 -15z m-60 -15 c5 -27 2 -41 -7 -32 -11 10 -17 59
-8 59 5 0 12 -12 15 -27z m87 17 c0 -5 -4 -10 -10 -10 -5 0 -10 5 -10 10 0 6
5 10 10 10 6 0 10 -4 10 -10z m35 0 c3 -5 1 -10 -4 -10 -6 0 -11 5 -11 10 0 6
2 10 4 10 3 0 8 -4 11 -10z m980 -22 c14 -29 14 -31 0 -14 -8 11 -15 24 -15
29 0 4 -5 5 -12 1 -7 -4 -8 -3 -4 4 11 17 14 15 31 -20z m-1432 1 c36 2 35
-16 -3 -24 -20 -4 -35 -2 -45 9 -20 20 -19 30 3 21 9 -4 29 -7 45 -6z m1406
-13 c10 -12 8 -13 -8 -9 -12 3 -21 9 -21 14 0 14 16 11 29 -5z m-1455 -46 c3
-23 13 -43 21 -46 22 -9 55 -70 44 -81 -9 -9 -16 -41 -18 -80 -1 -8 -8 -10
-18 -6 -14 5 -16 4 -8 -8 13 -17 12 -99 -2 -149 -6 -23 -11 -31 -17 -22 -4 7
-4 21 -1 32 4 11 4 29 0 40 -6 19 -8 19 -43 4 -20 -8 -50 -27 -67 -43 -57 -52
-71 -58 -41 -18 16 21 22 35 14 32 -8 -3 -25 -20 -37 -36 -13 -17 -25 -28 -28
-25 -9 9 50 77 96 109 41 28 43 32 24 35 -13 2 -23 9 -23 15 0 7 -4 6 -10 -3
-9 -13 -11 -13 -20 0 -5 8 -8 21 -5 28 3 8 5 39 5 70 l0 57 20 -25 c15 -19 20
-21 20 -9 0 9 7 19 15 23 11 4 15 21 15 65 0 47 4 62 18 70 30 18 39 12 46
-29z m374 2 c6 -18 -15 -14 -22 4 -4 10 -1 14 6 12 6 -2 14 -10 16 -16z m999
-30 c-18 -19 -23 -37 -9 -28 5 3 9 -1 9 -9 0 -8 -6 -15 -13 -15 -24 0 -26 22
-3 46 26 28 40 33 16 6z m-1653 -33 c-3 -5 -10 -7 -15 -3 -5 3 -7 10 -3 15 3
5 10 7 15 3 5 -3 7 -10 3 -15z m46 11 c0 -5 -4 -10 -10 -10 -5 0 -10 5 -10 10
0 6 5 10 10 10 6 0 10 -4 10 -10z m-6 -83 c5 -64 -3 -97 -23 -97 -9 0 -12 3
-6 8 13 9 11 48 -6 89 -11 26 -10 34 1 48 19 23 31 6 34 -48z m156 39 c0 -11
-19 -15 -25 -6 -3 5 1 10 9 10 9 0 16 -2 16 -4z m1640 -50 c0 -2 -9 -6 -20 -9
-11 -3 -18 -1 -14 4 5 9 34 13 34 5z m-3080 -46 c0 -5 -5 -10 -11 -10 -5 0 -7
5 -4 10 3 6 8 10 11 10 2 0 4 -4 4 -10z m928 -9 c3 -8 -1 -12 -9 -9 -7 2 -15
10 -17 17 -3 8 1 12 9 9 7 -2 15 -10 17 -17z m-938 -25 c0 -3 -4 -8 -10 -11
-5 -3 -10 -1 -10 4 0 6 5 11 10 11 6 0 10 -2 10 -4z m34 -11 c3 -8 1 -15 -4
-15 -6 0 -10 7 -10 15 0 8 2 15 4 15 2 0 6 -7 10 -15z m1733 2 c-5 -14 26 -17
39 -4 10 10 24 9 24 -2 0 -10 -97 -54 -111 -49 -5 2 2 18 17 36 28 34 39 41
31 19z m1083 3 c0 -5 -2 -10 -4 -10 -3 0 -8 5 -11 10 -3 6 -1 10 4 10 6 0 11
-4 11 -10z m-2304 -71 c8 -7 12 -19 9 -27 -3 -8 6 -43 20 -77 14 -35 25 -68
25 -74 0 -19 -20 -12 -20 7 -1 9 -10 35 -21 57 -18 36 -20 37 -15 10 3 -16 10
-47 15 -68 5 -22 5 -39 0 -43 -5 -3 -11 1 -13 8 -15 50 -40 111 -43 102 -2 -5
3 -31 11 -57 17 -57 2 -74 -19 -23 -8 19 -15 41 -15 49 0 7 -6 21 -13 32 -13
17 -15 16 -25 -15 -7 -18 -12 -41 -12 -51 0 -10 -5 -21 -10 -24 -6 -4 -10 15
-9 52 1 32 -2 78 -6 102 -7 40 -7 43 12 37 13 -4 26 0 37 13 14 15 23 17 48
11 16 -5 36 -15 44 -21z m217 16 c-3 -9 -8 -14 -10 -11 -3 3 -2 9 2 15 9 16
15 13 8 -4z m1997 4 c0 -6 8 -8 19 -4 17 5 19 2 17 -22 -2 -15 -4 -38 -5 -49
-1 -15 -9 -23 -26 -26 -24 -5 -25 -4 -25 53 0 33 4 59 10 59 6 0 10 -5 10 -11z
m-1955 -9 c3 -6 -4 -10 -17 -10 -18 0 -20 2 -8 10 19 12 18 12 25 0z m2651
-37 c-3 -3 2 -12 12 -19 11 -8 14 -16 7 -23 -17 -17 -32 2 -39 49 -7 44 -6 44
10 22 9 -13 13 -26 10 -29z m-1759 0 c-3 -10 -5 -4 -5 12 0 17 2 24 5 18 2 -7
2 -21 0 -30z m-804 0 c-7 -2 -19 -2 -25 0 -7 3 -2 5 12 5 14 0 19 -2 13 -5z
m-303 -34 c0 -6 -4 -7 -10 -4 -5 3 -10 11 -10 16 0 6 5 7 10 4 6 -3 10 -11 10
-16z m214 -48 c17 -19 17 -20 -3 -30 -16 -9 -19 -9 -15 2 3 9 -4 17 -18 20
-13 4 -24 2 -26 -3 -2 -6 -8 -10 -14 -10 -5 0 -8 6 -6 12 4 10 29 22 59 27 3
1 14 -8 23 -18z m36 15 c0 -3 -4 -8 -10 -11 -5 -3 -10 -1 -10 4 0 6 5 11 10
11 6 0 10 -2 10 -4z m50 -5 c0 -5 -5 -22 -10 -37 -10 -26 -11 -26 -29 -8 -17
18 -17 20 -2 36 18 18 41 23 41 9z m2563 -27 c-7 -20 -10 -18 -15 11 -4 20 -2
23 8 14 7 -6 10 -17 7 -25z m-3336 -26 c-3 -8 -6 -5 -6 6 -1 11 2 17 5 13 3
-3 4 -12 1 -19z m41 -3 c-3 -13 -2 -22 2 -20 4 3 10 -10 14 -27 14 -68 -21
-143 -49 -105 -6 9 -15 13 -20 9 -4 -4 -5 2 -2 13 17 60 20 78 8 71 -6 -4 -11
-3 -11 2 0 6 7 12 15 16 8 3 15 14 15 24 0 16 17 42 28 42 2 0 2 -11 0 -25z
m2152 15 c12 -8 11 -10 -7 -10 -13 0 -23 5 -23 10 0 13 11 13 30 0z m-1473
-17 c2 -6 -7 -13 -21 -15 -22 -4 -24 -3 -15 14 11 20 30 20 36 1z m-97 -17 c0
-3 -4 -8 -10 -11 -5 -3 -10 -1 -10 4 0 6 5 11 10 11 6 0 10 -2 10 -4z m130
-16 c0 -12 -20 -17 -54 -12 -22 4 -26 7 -14 11 27 9 68 10 68 1z m50 -146 c0
-16 -56 28 -57 45 -2 18 2 17 28 -10 16 -16 29 -32 29 -35z m1503 59 c-7 -2
-21 -2 -30 0 -10 3 -4 5 12 5 17 0 24 -2 18 -5z m-1388 -13 c4 -6 10 -8 15 -5
5 3 11 1 15 -5 4 -6 10 -8 15 -5 5 3 21 -2 36 -11 14 -10 42 -20 62 -23 47 -8
48 -24 2 -32 -19 -3 -43 -10 -54 -14 -15 -7 -17 -5 -11 13 5 19 2 22 -22 22
-15 0 -34 -4 -42 -9 -17 -11 -51 -2 -51 14 0 7 -9 15 -20 18 -28 7 -25 24 8
35 36 14 40 14 47 2z m2475 -14 c0 -3 -4 -8 -10 -11 -5 -3 -10 -1 -10 4 0 6 5
11 10 11 6 0 10 -2 10 -4z m-755 -26 c18 -8 17 -9 -7 -9 -16 -1 -28 4 -28 9 0
12 8 12 35 0z m-2616 -31 c-21 -13 -39 -11 -39 6 0 8 6 12 14 9 8 -3 18 0 22
7 6 10 9 10 12 0 2 -7 -2 -17 -9 -22z m2636 -19 c12 -11 52 -33 88 -49 37 -15
64 -32 59 -37 -4 -4 0 -3 9 4 9 6 19 9 22 6 8 -8 -12 -47 -29 -57 -8 -4 -14
-14 -14 -22 0 -18 -26 -23 -68 -14 -37 8 -72 39 -72 64 0 9 -4 13 -10 10 -5
-3 -10 -2 -10 4 0 5 -8 17 -17 26 -14 14 -14 20 -4 37 10 17 9 22 -6 34 -17
12 -16 13 6 14 14 0 34 -9 46 -20z m-2565 -10 c11 -7 4 -10 -27 -10 -23 0 -45
5 -48 10 -8 13 55 13 75 0z m983 -37 c-7 -2 -19 -2 -25 0 -7 3 -2 5 12 5 14 0
19 -2 13 -5z m1271 -26 c-8 -21 -20 -22 -28 -2 -3 8 0 14 7 12 7 -1 11 5 9 13
-3 11 0 12 8 4 6 -6 8 -18 4 -27z m251 3 c3 -5 -1 -10 -10 -10 -9 0 -13 5 -10
10 3 6 8 10 10 10 2 0 7 -4 10 -10z m-336 -36 c6 -6 -31 -33 -45 -34 -6 0 -21
12 -35 26 l-24 27 50 -8 c28 -4 52 -9 54 -11z m121 -5 c0 -6 -4 -7 -10 -4 -5
3 -10 11 -10 16 0 6 5 7 10 4 6 -3 10 -11 10 -16z m545 0 c11 -17 -1 -21 -15
-4 -8 9 -8 15 -2 15 6 0 14 -5 17 -11z m-570 -19 c10 -11 16 -20 13 -20 -3 0
-13 9 -23 20 -10 11 -16 20 -13 20 3 0 13 -9 23 -20z m-1365 -30 c0 -5 -4 -10
-9 -10 -6 0 -13 5 -16 10 -3 6 1 10 9 10 9 0 16 -4 16 -10z m2330 0 c0 -5 -5
-10 -11 -10 -5 0 -7 5 -4 10 3 6 8 10 11 10 2 0 4 -4 4 -10z m-826 -16 c9 -3
13 -10 10 -15 -3 -5 1 -9 9 -9 8 0 17 -7 21 -15 3 -8 20 -22 38 -30 18 -8 25
-13 15 -10 -10 3 -60 10 -110 15 -119 14 -132 17 -116 36 20 24 99 41 133 28z
m324 -27 c5 -24 -15 -21 -21 4 -3 13 -1 19 6 16 7 -2 13 -11 15 -20z m-859 -6
c21 -13 -3 -41 -35 -41 -29 0 -40 16 -24 35 14 17 38 19 59 6z m319 -28 c-10
-2 -26 -2 -35 0 -10 3 -2 5 17 5 19 0 27 -2 18 -5z m-313 -64 c5 -5 1 -9 -12
-9 -36 0 -83 12 -83 21 0 11 81 0 95 -12z m-235 -49 c0 -5 -5 -10 -11 -10 -5
0 -7 5 -4 10 3 6 8 10 11 10 2 0 4 -4 4 -10z m1635 -30 c3 -5 -3 -10 -14 -10
-11 0 -23 5 -26 10 -3 6 3 10 14 10 11 0 23 -4 26 -10z"/>
<path d="M1510 3376 c0 -2 8 -10 18 -17 15 -13 16 -12 3 4 -13 16 -21 21 -21
13z"/>
<path d="M340 3283 c0 -15 23 -33 43 -33 30 0 16 34 -16 38 -15 2 -27 -1 -27
-5z"/>
<path d="M390 3181 c0 -10 30 -24 37 -17 3 3 2 9 -2 15 -8 13 -35 15 -35 2z"/>
<path d="M351 3167 c15 -13 69 -34 69 -27 0 4 -14 13 -31 19 -32 11 -46 14
-38 8z"/>
<path d="M385 3120 c-3 -5 -1 -10 4 -10 6 0 11 5 11 10 0 6 -2 10 -4 10 -3 0
-8 -4 -11 -10z"/>
<path d="M1092 3253 c-17 -7 -5 -23 19 -23 10 0 19 7 19 15 0 15 -14 18 -38 8z"/>
<path d="M1120 2956 c0 -22 11 -46 21 -46 15 0 10 48 -6 54 -9 3 -15 0 -15 -8z"/>
<path d="M1177 2956 c-4 -10 -5 -21 -2 -24 9 -9 17 6 13 25 -3 17 -4 17 -11
-1z"/>
<path d="M1217 2963 c-13 -12 -7 -43 7 -43 19 0 28 14 20 34 -7 17 -16 20 -27
9z m18 -13 c3 -5 1 -10 -4 -10 -6 0 -11 5 -11 10 0 6 2 10 4 10 3 0 8 -4 11
-10z"/>
<path d="M1030 2940 c0 -5 5 -10 10 -10 6 0 10 -5 10 -11 0 -5 -4 -7 -10 -4
-5 3 -10 1 -10 -4 0 -6 7 -11 15 -11 9 0 15 9 15 25 0 16 -6 25 -15 25 -8 0
-15 -4 -15 -10z"/>
<path d="M1260 2915 c0 -14 4 -25 9 -25 4 0 6 11 3 25 -2 14 -6 25 -8 25 -2 0
-4 -11 -4 -25z"/>
<path d="M1165 2910 c-3 -5 -2 -10 4 -10 5 0 13 5 16 10 3 6 2 10 -4 10 -5 0
-13 -4 -16 -10z"/>
<path d="M1173 2875 c-3 -9 -3 -18 -1 -21 3 -3 8 4 11 16 6 23 -1 27 -10 5z"/>
<path d="M1110 2850 c0 -5 5 -10 11 -10 5 0 7 5 4 10 -3 6 -8 10 -11 10 -2 0
-4 -4 -4 -10z"/>
<path d="M1331 2834 c0 -11 3 -14 6 -6 3 7 2 16 -1 19 -3 4 -6 -2 -5 -13z"/>
<path d="M924 2794 c-23 -21 -24 -24 -6 -14 12 6 26 9 30 6 4 -2 8 4 8 15 0
10 -1 19 -2 19 0 0 -14 -12 -30 -26z"/>
<path d="M1140 2785 c0 -24 5 -35 15 -35 10 0 15 9 14 28 l-1 27 -8 -25 -8
-25 -1 27 c-1 14 5 29 12 31 7 3 5 6 -5 6 -14 1 -18 -7 -18 -34z"/>
<path d="M1190 2800 c0 -11 2 -20 4 -20 2 0 6 9 9 20 3 11 1 20 -4 20 -5 0 -9
-9 -9 -20z"/>
<path d="M1190 2755 c0 -16 16 -20 24 -6 3 5 -1 11 -9 15 -9 3 -15 0 -15 -9z"/>
<path d="M1215 2720 c3 -5 8 -10 11 -10 2 0 4 5 4 10 0 6 -5 10 -11 10 -5 0
-7 -4 -4 -10z"/>
<path d="M330 2680 c0 -5 7 -10 15 -10 8 0 15 5 15 10 0 6 -7 10 -15 10 -8 0
-15 -4 -15 -10z"/>
<path d="M1740 2890 c0 -5 5 -10 10 -10 6 0 10 5 10 10 0 6 -4 10 -10 10 -5 0
-10 -4 -10 -10z"/>
<path d="M3368 2453 c7 -3 16 -2 19 1 4 3 -2 6 -13 5 -11 0 -14 -3 -6 -6z"/>
<path d="M3305 2440 c-13 -5 -14 -9 -5 -9 8 0 24 4 35 9 13 5 14 9 5 9 -8 0
-24 -4 -35 -9z"/>
<path d="M3210 2410 c-8 -5 -10 -10 -5 -10 6 0 17 5 25 10 8 5 11 10 5 10 -5
0 -17 -5 -25 -10z"/>
<path d="M973 2343 c9 -2 23 -2 30 0 6 3 -1 5 -18 5 -16 0 -22 -2 -12 -5z"/>
<path d="M733 2058 c-11 -13 -28 -36 -38 -51 -28 -43 -85 -189 -85 -217 0 -14
-7 -36 -15 -50 -19 -34 -19 -80 0 -80 8 0 15 6 15 14 0 8 7 22 16 30 8 9 12
20 9 26 -3 6 1 13 9 16 9 3 16 13 16 21 0 15 47 79 94 125 23 23 37 28 77 28
l50 0 -52 67 c-28 37 -53 73 -56 80 -7 18 -17 16 -40 -9z"/>
<path d="M2020 2100 c-11 -11 -20 -24 -20 -29 0 -17 20 -23 34 -11 11 8 15 8
19 -2 3 -9 9 -7 20 7 11 14 12 25 6 37 -13 24 -34 23 -59 -2z"/>
<path d="M1861 1808 c-1 -15 4 -30 11 -34 8 -5 6 -11 -6 -19 -14 -11 -15 -13
-1 -18 8 -4 25 -3 36 2 21 7 21 8 -7 36 -16 16 -28 31 -26 32 2 2 1 9 -1 16
-3 6 -6 0 -6 -15z"/>
<path d="M1765 1770 c3 -5 11 -10 16 -10 6 0 7 5 4 10 -3 6 -11 10 -16 10 -6
0 -7 -4 -4 -10z"/>
<path d="M1885 1619 c-4 -6 -5 -13 -2 -16 7 -7 27 6 27 18 0 12 -17 12 -25 -2z"/>
<path d="M1955 1460 c4 -6 11 -8 16 -5 14 9 11 15 -7 15 -8 0 -12 -5 -9 -10z"/>
<path d="M1770 1423 c0 -4 5 -15 10 -23 8 -13 10 -13 10 2 0 9 -4 20 -10 23
-5 3 -10 3 -10 -2z"/>
<path d="M1700 1260 c0 -5 6 -10 14 -10 8 0 18 5 21 10 3 6 -3 10 -14 10 -12
0 -21 -4 -21 -10z"/>
<path d="M377 973 c-11 -19 -18 -73 -9 -73 5 0 12 17 15 37 6 36 4 52 -6 36z"/>
<path d="M2790 619 c0 -5 5 -7 10 -4 6 3 10 8 10 11 0 2 -4 4 -10 4 -5 0 -10
-5 -10 -11z"/>
<path d="M1360 3490 c0 -5 8 -13 18 -18 20 -11 62 2 62 19 0 8 -4 8 -15 -1
-12 -10 -21 -10 -40 -2 -14 7 -25 8 -25 2z"/>
<path d="M1555 3470 c3 -5 16 -10 28 -10 18 0 19 2 7 10 -20 13 -43 13 -35 0z"/>
<path d="M2500 3465 c0 -8 5 -15 10 -15 6 0 10 7 10 15 0 8 -4 15 -10 15 -5 0
-10 -7 -10 -15z"/>
<path d="M1624 3459 c-13 -5 -3 -8 29 -8 26 -1 47 1 47 3 0 8 -58 12 -76 5z"/>
<path d="M1799 3453 c-13 -16 -12 -17 4 -4 16 13 21 21 13 21 -2 0 -10 -8 -17
-17z"/>
<path d="M2411 3433 c-1 -18 4 -33 9 -33 12 0 12 17 0 45 -7 17 -9 15 -9 -12z"/>
<path d="M2870 3418 l-52 -41 38 -13 c38 -13 55 -9 76 21 11 14 10 75 -1 75
-4 0 -32 -19 -61 -42z"/>
<path d="M2510 3399 c0 -5 9 -9 20 -9 11 0 20 2 20 4 0 2 -9 6 -20 9 -11 3
-20 1 -20 -4z"/>
<path d="M1725 3270 c3 -5 10 -10 16 -10 5 0 9 5 9 10 0 6 -7 10 -16 10 -8 0
-12 -4 -9 -10z"/>
<path d="M3116 3205 c-3 -8 -1 -15 3 -15 5 0 11 7 15 15 3 8 1 15 -3 15 -5 0
-11 -7 -15 -15z"/>
<path d="M3705 3190 c3 -5 11 -10 16 -10 6 0 7 5 4 10 -3 6 -11 10 -16 10 -6
0 -7 -4 -4 -10z"/>
<path d="M2280 3180 c0 -5 5 -10 11 -10 5 0 7 5 4 10 -3 6 -8 10 -11 10 -2 0
-4 -4 -4 -10z"/>
<path d="M3113 3153 c0 -16 -4 -106 -8 -202 -6 -131 -5 -172 3 -167 7 4 12 31
12 60 0 28 5 57 12 64 9 9 9 12 0 12 -12 0 -12 23 4 175 5 51 -1 85 -16 85 -4
0 -7 -12 -7 -27z"/>
<path d="M2140 3155 c0 -9 -11 -20 -25 -25 -14 -5 -25 -16 -25 -24 0 -15 27
-29 41 -21 5 4 6 -2 2 -12 -5 -15 -2 -14 15 3 11 12 27 24 34 27 8 2 9 8 4 13
-5 5 -11 4 -13 -3 -10 -29 -24 -11 -17 22 4 23 2 35 -5 35 -6 0 -11 -7 -11
-15z"/>
<path d="M2008 3133 c-23 -6 -23 -15 0 -34 17 -14 22 -14 46 -2 15 8 25 20 23
26 -4 13 -41 18 -69 10z"/>
<path d="M2325 3119 c-4 -6 -5 -12 -2 -15 2 -3 7 2 10 11 7 17 1 20 -8 4z"/>
<path d="M2888 3104 c-5 -4 -8 -21 -8 -38 0 -21 3 -27 11 -19 6 6 9 23 7 38
-2 15 -6 23 -10 19z"/>
<path d="M2931 3084 c0 -11 3 -14 6 -6 3 7 2 16 -1 19 -3 4 -6 -2 -5 -13z"/>
<path d="M2620 3071 c0 -5 5 -13 10 -16 6 -3 10 -2 10 4 0 5 -4 13 -10 16 -5
3 -10 2 -10 -4z"/>
<path d="M2735 3044 c0 -25 10 -22 25 6 8 15 7 19 -7 17 -11 0 -18 -9 -18 -23z"/>
<path d="M2577 3046 c-7 -17 2 -56 13 -56 10 0 22 48 15 60 -9 14 -22 12 -28
-4z"/>
<path d="M2283 3042 c-11 -8 -11 -11 -13 -92 -1 -76 2 -92 23 -114 9 -11 18
-23 18 -28 1 -4 2 -13 3 -19 0 -7 10 -15 21 -20 29 -11 43 -10 23 2 -10 5 -15
16 -11 25 5 13 8 12 27 -3 18 -16 19 -16 7 -1 -7 10 -11 24 -8 32 4 10 1 13
-9 9 -10 -4 -15 0 -14 8 1 8 2 33 1 57 -1 30 -5 42 -16 42 -8 0 -15 7 -15 16
0 14 3 14 15 4 20 -16 19 -1 -1 21 -8 9 -16 26 -17 38 -1 22 -18 33 -34 23z"/>
<path d="M3196 2964 c-5 -12 0 -15 21 -12 14 2 28 9 31 16 6 18 -45 15 -52 -4z"/>
<path d="M2620 2960 c0 -5 5 -10 11 -10 5 0 7 5 4 10 -3 6 -8 10 -11 10 -2 0
-4 -4 -4 -10z"/>
<path d="M2511 2904 c0 -11 3 -14 6 -6 3 7 2 16 -1 19 -3 4 -6 -2 -5 -13z"/>
<path d="M2386 2889 c-15 -12 -25 -23 -22 -26 2 -3 17 7 33 21 33 31 26 34
-11 5z"/>
<path d="M2510 2870 c0 -5 5 -10 11 -10 5 0 7 5 4 10 -3 6 -8 10 -11 10 -2 0
-4 -4 -4 -10z"/>
<path d="M2613 2855 c0 -8 4 -15 8 -15 4 0 9 7 13 15 3 9 0 15 -8 15 -7 0 -13
-7 -13 -15z"/>
<path d="M62 2848 c5 -15 28 -18 29 -3 0 6 -7 12 -17 13 -10 3 -15 -1 -12 -10z"/>
<path d="M2560 2802 c0 -12 9 -26 20 -32 11 -6 20 -8 20 -4 0 3 -9 17 -20 31
-19 24 -20 25 -20 5z"/>
<path d="M2640 2800 c0 -5 7 -7 15 -4 8 4 15 8 15 10 0 2 -7 4 -15 4 -8 0 -15
-4 -15 -10z"/>
<path d="M215 2650 c3 -5 8 -10 11 -10 2 0 4 5 4 10 0 6 -5 10 -11 10 -5 0 -7
-4 -4 -10z"/>
<path d="M111 2620 c-15 -13 -38 -20 -67 -20 -44 0 -44 0 -44 -36 0 -26 4 -35
13 -31 17 6 38 -26 27 -43 -4 -7 -15 -10 -24 -7 -19 8 -23 -19 -3 -26 9 -4 9
-8 1 -14 -15 -10 -9 -63 8 -74 17 -11 48 -11 48 0 0 5 -11 12 -25 15 -16 4
-23 11 -19 18 6 9 9 9 12 0 2 -8 13 -10 30 -6 36 9 37 9 13 33 -13 13 -21 16
-24 8 -2 -7 -7 -9 -11 -6 -4 4 -2 17 3 30 5 13 12 32 15 43 4 12 10 15 19 10
6 -5 32 -9 57 -9 49 0 57 12 59 86 1 43 -6 52 -32 38 -14 -8 -18 -8 -13 0 12
18 -17 12 -43 -9z"/>
<path d="M70 2481 c0 -5 6 -13 13 -19 10 -8 16 -6 25 9 11 17 9 19 -13 19 -14
0 -25 -4 -25 -9z"/>
<path d="M180 2471 c0 -5 5 -13 10 -16 6 -3 10 -2 10 4 0 5 -4 13 -10 16 -5 3
-10 2 -10 -4z"/>
<path d="M2290 2371 c0 -5 7 -15 17 -22 15 -13 15 -12 4 9 -12 23 -21 28 -21
13z"/>
<path d="M2519 2331 c6 -11 9 -26 8 -33 -2 -7 -2 -9 1 -5 2 4 11 2 20 -5 13
-11 15 -10 9 5 -4 10 -7 22 -7 25 0 4 -9 13 -21 20 -18 12 -19 11 -10 -7z"/>
<path d="M2299 2293 c-13 -16 -12 -17 4 -4 9 7 17 15 17 17 0 8 -8 3 -21 -13z"/>
<path d="M2290 1929 c0 -5 5 -7 10 -4 6 3 10 8 10 11 0 2 -4 4 -10 4 -5 0 -10
-5 -10 -11z"/>
<path d="M2261 1866 c-16 -19 -11 -29 8 -17 7 5 12 14 9 21 -3 9 -8 7 -17 -4z"/>
<path d="M2235 1819 c-4 -6 -5 -12 -2 -15 2 -3 7 2 10 11 7 17 1 20 -8 4z"/>
<path d="M2180 1795 c0 -8 4 -15 9 -15 5 0 11 7 15 15 3 9 0 15 -9 15 -8 0
-15 -7 -15 -15z"/>
<path d="M2257 1766 c-4 -10 -1 -13 9 -9 15 6 19 23 5 23 -5 0 -11 -7 -14 -14z"/>
<path d="M2351 1686 c-7 -8 -8 -17 -3 -20 6 -3 12 3 15 14 6 24 4 25 -12 6z"/>
<path d="M2238 1503 c7 -3 16 -2 19 1 4 3 -2 6 -13 5 -11 0 -14 -3 -6 -6z"/>
<path d="M2305 1451 c-3 -5 -1 -12 5 -16 5 -3 10 1 10 9 0 18 -6 21 -15 7z"/>
<path d="M2420 1445 c0 -17 2 -18 24 -9 23 9 20 24 -4 24 -11 0 -20 -7 -20
-15z"/>
<path d="M905 520 c-18 -8 -17 -9 8 -9 15 -1 27 4 27 9 0 12 -8 12 -35 0z"/>
<path d="M843 513 c9 -2 23 -2 30 0 6 3 -1 5 -18 5 -16 0 -22 -2 -12 -5z"/>
<path d="M3395 500 c-3 -5 -2 -10 4 -10 5 0 13 5 16 10 3 6 2 10 -4 10 -5 0
-13 -4 -16 -10z"/>
<path d="M3426 484 c-4 -9 -4 -19 -1 -22 2 -3 7 3 11 12 4 9 4 19 1 22 -2 3
-7 -3 -11 -12z"/>
<path d="M1870 445 c6 -8 8 -20 4 -26 -5 -9 -2 -10 12 -4 10 4 31 10 47 13 15
2 27 8 27 14 0 5 -15 6 -34 3 -20 -4 -36 -2 -40 4 -4 6 -12 11 -18 11 -7 0 -6
-5 2 -15z"/>
<path d="M1975 450 c-3 -5 1 -10 9 -10 9 0 16 5 16 10 0 6 -4 10 -9 10 -6 0
-13 -4 -16 -10z"/>
<path d="M3324 415 c11 -8 27 -15 35 -15 10 1 7 6 -9 15 -33 19 -50 18 -26 0z"/>
<path d="M3480 426 c0 -2 7 -7 16 -10 8 -3 12 -2 9 4 -6 10 -25 14 -25 6z"/>
<path d="M3487 389 c7 -7 15 -10 18 -7 3 3 -2 9 -12 12 -14 6 -15 5 -6 -5z"/>
<path d="M3530 390 c0 -5 5 -10 11 -10 5 0 7 5 4 10 -3 6 -8 10 -11 10 -2 0
-4 -4 -4 -10z"/>
<path d="M3680 360 c0 -5 7 -10 15 -10 8 0 15 5 15 10 0 6 -7 10 -15 10 -8 0
-15 -4 -15 -10z"/>
<path d="M2955 350 c-2 -3 10 -11 26 -17 26 -10 30 -9 27 4 -3 16 -45 26 -53
13z"/>
<path d="M1238 313 c-10 -12 -7 -13 18 -7 59 14 71 23 31 22 -20 -1 -42 -8
-49 -15z"/>
<path d="M3063 283 c9 -9 19 -14 23 -11 10 10 -6 28 -24 28 -15 0 -15 -1 1
-17z"/>
<path d="M1560 278 c0 -10 52 -10 67 0 7 5 -4 8 -27 7 -22 0 -40 -3 -40 -7z"/>
<path d="M3107 274 c5 -15 81 -45 88 -35 2 5 -6 17 -18 27 -24 21 -77 27 -70
8z"/>
<path d="M1498 273 c6 -2 18 -2 25 0 6 3 1 5 -13 5 -14 0 -19 -2 -12 -5z"/>
<path d="M2636 225 c-15 -11 -14 -13 7 -17 26 -5 47 0 47 12 0 14 -36 18 -54
5z"/>
<path d="M2714 215 c11 -8 27 -15 35 -15 11 0 10 4 -5 15 -10 8 -26 14 -34 14
-11 0 -10 -3 4 -14z"/>
<path d="M1320 210 c-9 -6 -10 -10 -3 -10 6 0 15 5 18 10 8 12 4 12 -15 0z"/>
<path d="M3330 172 c0 -9 90 -32 118 -31 18 0 -84 38 -105 39 -7 0 -13 -4 -13
-8z"/>
<path d="M3461 109 c-13 -5 -21 -12 -18 -15 9 -9 57 5 57 16 0 12 -7 12 -39
-1z"/>
<path d="M3260 75 c14 -8 32 -14 40 -14 8 0 0 6 -19 14 -42 19 -54 19 -21 0z"/>
<path d="M3346 64 c-8 -22 -3 -26 24 -22 22 3 22 3 2 21 -18 17 -20 17 -26 1z"/>
<path d="M358 42 c-351 -2 -358 -3 -358 -22 0 -20 6 -20 595 -20 555 1 594 2
588 18 -6 16 -5 16 11 -1 20 -20 47 -22 64 -5 24 24 10 28 -98 28 -67 0 -110
-4 -110 -10 0 -13 -27 -13 -32 -1 -4 12 -218 17 -660 13z m802 -22 c0 -5 -4
-10 -10 -10 -5 0 -10 5 -10 10 0 6 5 10 10 10 6 0 10 -4 10 -10z"/>
<path d="M1324 18 c0 -15 10 -18 62 -18 57 0 62 2 57 20 -6 22 -18 26 -28 10
-3 -6 -11 -10 -16 -10 -6 0 -8 4 -5 9 3 5 -11 8 -32 7 -29 0 -38 -5 -38 -18z"/>
<path d="M1490 20 c-24 -19 -24 -20 -3 -20 12 0 24 6 27 13 5 10 7 10 12 0 9
-20 104 -17 104 2 0 9 9 15 25 15 14 0 28 -7 31 -15 4 -8 12 -15 20 -15 12 0
12 4 2 20 -11 17 -24 20 -75 20 -35 0 -63 -4 -63 -10 0 -5 -7 -10 -15 -10 -8
0 -15 5 -15 10 0 16 -23 11 -50 -10z"/>
<path d="M1745 32 c-2 -3 3 -11 13 -18 13 -11 112 -13 490 -13 460 0 472 1
472 20 0 18 -11 19 -379 19 -294 0 -380 -3 -384 -12 -4 -10 -8 -9 -16 2 -10
13 -12 13 -21 0 -6 -10 -10 -11 -10 -2 0 7 -13 12 -30 12 -16 0 -30 -5 -30
-11 0 -5 -5 -7 -11 -3 -14 9 -86 13 -94 6z"/>
<path d="M3200 20 c0 -26 16 -26 23 0 3 13 0 20 -9 20 -8 0 -14 -9 -14 -20z"/>
<path d="M3520 20 c0 -15 7 -20 29 -20 17 0 31 6 35 16 9 24 9 24 -29 24 -28
0 -35 -4 -35 -20z"/>
<path d="M3460 10 c0 -5 5 -10 10 -10 6 0 10 5 10 10 0 6 -4 10 -10 10 -5 0
-10 -4 -10 -10z"/>
</g>
</svg>
